<svg width="24" height="25" viewBox="0 0 24 25" fill="none" xmlns="http://www.w3.org/2000/svg">
<path d="M8.59003 13.967L15.42 17.947M15.41 6.96704L8.59003 10.947M21 5.45703C21 7.11389 19.6569 8.45703 18 8.45703C16.3431 8.45703 15 7.11389 15 5.45703C15 3.80018 16.3431 2.45703 18 2.45703C19.6569 2.45703 21 3.80018 21 5.45703ZM9 12.457C9 14.1139 7.65685 15.457 6 15.457C4.34315 15.457 3 14.1139 3 12.457C3 10.8002 4.34315 9.45703 6 9.45703C7.65685 9.45703 9 10.8002 9 12.457ZM21 19.457C21 21.1139 19.6569 22.457 18 22.457C16.3431 22.457 15 21.1139 15 19.457C15 17.8002 16.3431 16.457 18 16.457C19.6569 16.457 21 17.8002 21 19.457Z" stroke="#09090B" stroke-width="1.5" stroke-linecap="round" stroke-linejoin="round"/>
</svg>
